<svg width="20" height="20" viewBox="0 0 20 20" fill="none" xmlns="http://www.w3.org/2000/svg">
<path d="M19.3334 3.33221H15V1.87031L17.1667 0.632197C17.3334 0.532198 17.4 0.3322 17.3 0.165522C17.2 -0.00115656 17 -0.0344763 16.8334 0.0322029L14.5 1.36555C14.4834 1.37552 14.4685 1.38672 14.4545 1.39855C14.3781 1.45673 14.3333 1.54986 14.3333 1.66555V3.33221H10C9.63334 3.33221 9.33335 3.63221 9.33335 3.99888V5.33223C9.33335 5.58274 9.4735 5.802 9.67921 5.91586L9.74538 7.23912C8.92235 7.08241 8.00107 6.99893 7.00001 6.99893C2.80001 6.99889 0 8.46556 0 10.6656V10.9989C0 11.3656 0.299997 11.6656 0.666673 11.6656H0.99999V12.42C0.516397 12.5548 0.138918 12.9307 0.0333198 13.4323C-0.0333595 13.7989 0.0666395 14.1656 0.299997 14.4656C0.467787 14.6813 0.721836 14.8449 0.99999 14.9324V15.2998C0.448526 15.3177 0 15.7768 0 16.3322V16.9656C0 17.5211 0.448526 17.9802 0.99999 17.9981V18.9989C0.99999 19.5656 1.43331 19.9989 1.99998 19.9989H12H18.0333C18.5667 19.9989 19 19.5656 19.0333 19.0322L19.6548 5.91542C19.8601 5.80145 20 5.58246 20 5.33219V3.99888C20.0001 3.63221 19.7 3.33221 19.3334 3.33221ZM10 3.99888H19.3334V5.33223H10V3.99888ZM1.66666 15.2989V14.9635C1.88302 14.9164 2.08957 14.8205 2.26666 14.6656C2.43334 14.4989 2.56665 14.2656 2.63333 13.9989H3.66668C3.83336 14.5656 4.33336 14.9989 4.96667 14.9989C5.60002 14.9989 6.13334 14.5656 6.26666 13.9989H7.7C7.86668 14.5656 8.36668 14.9989 8.99999 14.9989C9.63334 14.9989 10.1667 14.5656 10.3 13.9989H11.3666C11.4333 14.2656 11.5333 14.4989 11.7333 14.6656C11.9025 14.8106 12.1068 14.9202 12.3333 14.9697V15.2989H1.66666ZM13.4904 12.6263C13.3468 12.5088 13.1802 12.4186 13 12.3656V11.6656H13.3333C13.7 11.6656 14 11.3656 14 10.9989V10.6656C14 10.6208 13.9985 10.5763 13.9964 10.532C13.9962 10.5284 13.996 10.5249 13.9958 10.5214C13.9736 10.1018 13.8528 9.70629 13.6127 9.33493C13.5981 9.31158 13.5827 9.28842 13.5672 9.26535C13.9004 9.09887 14.2669 8.99895 14.6666 8.99895C15.9666 8.99895 16.9999 10.0323 16.9999 11.3323C16.9999 12.6323 15.9666 13.6656 14.6666 13.6656C14.4333 13.6656 14.2333 13.6323 13.9999 13.5656C13.9779 13.1885 13.7785 12.8559 13.4904 12.6263ZM0.666673 10.6656C0.666673 8.89891 3.26669 7.66557 7.00001 7.66557C10.0246 7.66557 12.305 8.47513 13.062 9.72186C13.2427 10.0276 13.3333 10.3466 13.3333 10.6655V10.9989H12.6667H1.33335H0.666673V10.6656ZM12.3334 11.6656V12.3322H1.66666V11.6656H12.3334ZM0.833351 14.0322C0.733352 13.9322 0.666673 13.7655 0.700033 13.5322C0.733353 13.2322 1.06671 12.9989 1.40003 12.9989H12.6667C12.9945 12.9989 13.3215 13.3211 13.3324 13.6488C13.3215 13.9754 12.9939 14.2661 12.6334 14.2989C12.5945 14.2989 12.5576 14.3083 12.5236 14.3243C12.3977 14.3082 12.2988 14.2643 12.2 14.1655C12.0667 14.0655 12 13.8655 12 13.6655C12 13.4655 11.8667 13.3322 11.6667 13.3322H10.0001C9.80006 13.3322 9.66674 13.4655 9.66674 13.6655C9.66674 14.0322 9.36674 14.3322 9.00007 14.3322C8.63339 14.3322 8.3334 14.0322 8.3334 13.6655C8.3334 13.4655 8.20008 13.3322 8.00008 13.3322H6.00006C5.80006 13.3322 5.66674 13.4655 5.66674 13.6655C5.66674 14.0322 5.36675 14.3322 5.00007 14.3322C4.63339 14.3322 4.3334 14.0322 4.3334 13.6655C4.3334 13.4655 4.20008 13.3322 4.00008 13.3322H2.33334C2.13334 13.3322 2.00002 13.4655 2.00002 13.6655C2.00002 13.8655 1.93334 14.0655 1.80002 14.1322C1.70002 14.2655 1.53334 14.2989 1.36671 14.2989C1.16667 14.2989 0.96667 14.1989 0.833351 14.0322ZM0.666673 16.9989V16.3656C0.666673 15.9322 1.03335 15.9656 1.03335 15.9656H1.33335H12.6667H13C13.2 15.9656 13.3667 16.1322 13.3667 16.3322V16.9656C13.3667 17.1656 13.2 17.3323 13 17.3323H12.6667H1.33335H1.03335C0.833352 17.3323 0.666673 17.1656 0.666673 16.9989ZM1.66666 18.9989V17.9989H12.3334V18.9989C12.3334 19.1989 12.2 19.3322 12 19.3322H2.00002C1.80002 19.3322 1.66666 19.1989 1.66666 18.9989ZM18.3667 18.9989C18.3667 19.1989 18.2001 19.3322 18.0334 19.3322H12.9463C12.9714 19.2575 12.9882 19.1786 12.9956 19.0961C12.9983 19.0748 13 19.0535 13 19.0322V18.9989V18.0323C13.4451 18.0061 13.8077 17.7331 13.943 17.3427C13.9937 17.2256 14.0256 17.0984 14.0334 16.9656V16.3322C14.0334 15.7656 13.5667 15.2989 13 15.2989V14.985C13.4012 14.8759 13.724 14.5919 13.8862 14.2291C14.1379 14.3013 14.3946 14.3322 14.6667 14.3322C16.3334 14.3322 17.6667 12.9989 17.7 11.2989C17.7 9.63223 16.3667 8.29888 14.7 8.29888C14.1258 8.29888 13.6011 8.44769 13.1258 8.74447C12.5106 8.15515 11.5911 7.69321 10.4331 7.39293L10.3667 5.99886H19L18.3667 18.9989Z" fill="#ECB934"/>
</svg>
