<svg width="22" height="18" viewBox="0 0 22 18" fill="none" xmlns="http://www.w3.org/2000/svg">
<path d="M18 17V15.5M4 17V15.5" stroke="#ECB934" stroke-width="1.5" stroke-linecap="round"/>
<path d="M1 12C1 11.0681 1 10.6022 1.15224 10.2346C1.35523 9.7446 1.74458 9.3552 2.23463 9.1522C2.60218 9 3.06812 9 4 9H18C18.9319 9 19.3978 9 19.7654 9.1522C20.2554 9.3552 20.6448 9.7446 20.8478 10.2346C21 10.6022 21 11.0681 21 12C21 12.9319 21 13.3978 20.8478 13.7654C20.6448 14.2554 20.2554 14.6448 19.7654 14.8478C19.3978 15 18.9319 15 18 15H4C3.06812 15 2.60218 15 2.23463 14.8478C1.74458 14.6448 1.35523 14.2554 1.15224 13.7654C1 13.3978 1 12.9319 1 12Z" stroke="#ECB934" stroke-width="1.5"/>
<path d="M20 9C20 5.22876 20 3.34315 18.8284 2.17157C17.6569 1 15.7712 1 12 1H10C6.22876 1 4.34315 1 3.17157 2.17157C2 3.34315 2 5.22876 2 9" stroke="#ECB934" stroke-width="1.5"/>
<path d="M17.5 9V7.5C17.5 5.61438 17.5 4.67157 16.9142 4.08579C16.3284 3.5 15.3856 3.5 13.5 3.5H8.5C6.61438 3.5 5.67157 3.5 5.08579 4.08579C4.5 4.67157 4.5 5.61438 4.5 7.5V9" stroke="#ECB934" stroke-width="1.5"/>
<path d="M11 4V9" stroke="#ECB934" stroke-width="1.5"/>
</svg>
